<svg xmlns="http://www.w3.org/2000/svg" viewBox="0 0 96 96" role="img" aria-labelledby="title desc">
  <title id="title">NutriFit Logo</title>
  <desc id="desc">Emblem with rounded square, leaf and N/F initials.</desc>
  <defs>
    <linearGradient id="bg" x1="0" y1="0" x2="1" y2="1">
      <stop offset="0%" stop-color="#16a34a" />
      <stop offset="100%" stop-color="#0d9488" />
    </linearGradient>
    <linearGradient id="leaf" x1="0" y1="0" x2="1" y2="1">
      <stop offset="0%" stop-color="#86efac" />
      <stop offset="100%" stop-color="#22c55e" />
    </linearGradient>
  </defs>
  <rect x="8" y="8" width="80" height="80" rx="22" fill="url(#bg)" />
  <path d="M64 21c-10 1-19 8-24 18-2 4-3 9-3 13 0 1 1 2 2 2 9 0 18-4 24-11 6-6 9-14 9-22 0 0 0-1-1 0-2 0-4 0-7 0z" fill="url(#leaf)" />
  <path d="M24 66V30h7l15 22V30h8v36h-7L32 44v22h-8zm39 0V30h8v14h9v7h-9v15h-8z" fill="#ffffff" />
</svg>
